<mxfile>
    <diagram id="m01z0Z_qu45pK_g910Zs" name="Page-1">
        <mxGraphModel dx="840" dy="1265" grid="1" gridSize="10" guides="1" tooltips="1" connect="1" arrows="1" fold="1" page="1" pageScale="1" pageWidth="827" pageHeight="1169" math="0" shadow="0">
            <root>
                <mxCell id="0"/>
                <mxCell id="1" parent="0"/>
                <mxCell id="2" value="&lt;h1&gt;9 - Exemplo de aplicação de BD&lt;/h1&gt;&lt;blockquote style=&quot;margin: 0 0 0 40px ; border: none ; padding: 0px&quot;&gt;&lt;h2&gt;Gerenciador de notas simples&lt;/h2&gt;&lt;/blockquote&gt;" style="text;html=1;strokeColor=none;fillColor=none;spacing=5;spacingTop=-20;whiteSpace=wrap;overflow=hidden;rounded=0;" vertex="1" parent="1">
                    <mxGeometry x="227" y="40" width="373" height="120" as="geometry"/>
                </mxCell>
                <mxCell id="30" value="" style="group" vertex="1" connectable="0" parent="1">
                    <mxGeometry x="120" y="200" width="190" height="120" as="geometry"/>
                </mxCell>
                <mxCell id="6" value="Usuário" style="rounded=1;whiteSpace=wrap;html=1;sketch=0;fontColor=#f0f0f0;verticalAlign=top;" vertex="1" parent="30">
                    <mxGeometry x="5" width="180" height="120" as="geometry"/>
                </mxCell>
                <mxCell id="9" value="&lt;ul&gt;&lt;li&gt;ID&lt;/li&gt;&lt;li&gt;Nome&lt;/li&gt;&lt;li&gt;Email&lt;/li&gt;&lt;/ul&gt;" style="text;strokeColor=none;fillColor=none;html=1;whiteSpace=wrap;verticalAlign=middle;overflow=hidden;sketch=0;fontColor=#f0f0f0;align=left;" vertex="1" parent="30">
                    <mxGeometry y="20" width="190" height="90" as="geometry"/>
                </mxCell>
                <mxCell id="31" value="" style="group" vertex="1" connectable="0" parent="1">
                    <mxGeometry x="374" y="200" width="166" height="120" as="geometry"/>
                </mxCell>
                <mxCell id="32" value="Serviço Usuário" style="rounded=1;whiteSpace=wrap;html=1;sketch=0;fontColor=#f0f0f0;verticalAlign=top;" vertex="1" parent="31">
                    <mxGeometry x="4.36842105263158" width="157.26315789473688" height="120" as="geometry"/>
                </mxCell>
                <mxCell id="33" value="&lt;ul&gt;&lt;li&gt;TemConta&lt;/li&gt;&lt;li&gt;ServicoUsuarioID&lt;/li&gt;&lt;/ul&gt;" style="text;strokeColor=none;fillColor=none;html=1;whiteSpace=wrap;verticalAlign=middle;overflow=hidden;sketch=0;fontColor=#f0f0f0;align=left;" vertex="1" parent="31">
                    <mxGeometry y="20" width="166" height="90" as="geometry"/>
                </mxCell>
                <mxCell id="35" style="edgeStyle=orthogonalEdgeStyle;rounded=0;orthogonalLoop=1;jettySize=auto;html=1;exitX=1;exitY=0.5;exitDx=0;exitDy=0;entryX=0;entryY=0.5;entryDx=0;entryDy=0;fontColor=#f0f0f0;" edge="1" parent="1" source="9" target="33">
                    <mxGeometry relative="1" as="geometry"/>
                </mxCell>
                <mxCell id="43" value="" style="group" vertex="1" connectable="0" parent="1">
                    <mxGeometry x="40" y="590" width="260" height="220" as="geometry"/>
                </mxCell>
                <mxCell id="42" value="Nota Local" style="rounded=1;whiteSpace=wrap;html=1;sketch=0;fontColor=#f0f0f0;align=center;verticalAlign=top;" vertex="1" parent="43">
                    <mxGeometry x="20" y="20" width="220" height="180" as="geometry"/>
                </mxCell>
                <mxCell id="39" value="" style="group;verticalAlign=top;" vertex="1" connectable="0" parent="43">
                    <mxGeometry x="40" y="50" width="180" height="110" as="geometry"/>
                </mxCell>
                <mxCell id="40" value="Nota" style="rounded=1;whiteSpace=wrap;html=1;sketch=0;fontColor=#f0f0f0;verticalAlign=top;" vertex="1" parent="39">
                    <mxGeometry x="4.736842105263158" width="170.5263157894737" height="110.00000000000001" as="geometry"/>
                </mxCell>
                <mxCell id="41" value="&lt;ul&gt;&lt;li&gt;ServicoNotaID&lt;/li&gt;&lt;li&gt;NotaID&lt;/li&gt;&lt;li&gt;Conteudo&lt;/li&gt;&lt;/ul&gt;" style="text;strokeColor=none;fillColor=none;html=1;whiteSpace=wrap;verticalAlign=middle;overflow=hidden;sketch=0;fontColor=#f0f0f0;align=left;" vertex="1" parent="39">
                    <mxGeometry y="18.333333333333332" width="180" height="82.5" as="geometry"/>
                </mxCell>
                <mxCell id="55" value="..." style="text;html=1;strokeColor=none;fillColor=none;align=center;verticalAlign=bottom;whiteSpace=wrap;rounded=0;sketch=0;fontColor=#f0f0f0;fontSize=21;" vertex="1" parent="43">
                    <mxGeometry x="110" y="170" width="40" height="20" as="geometry"/>
                </mxCell>
                <mxCell id="56" value="" style="group" vertex="1" connectable="0" parent="1">
                    <mxGeometry x="550" y="590" width="260" height="220" as="geometry"/>
                </mxCell>
                <mxCell id="57" value="Servico" style="rounded=1;whiteSpace=wrap;html=1;sketch=0;fontColor=#f0f0f0;align=center;verticalAlign=top;" vertex="1" parent="56">
                    <mxGeometry x="20" y="20" width="220" height="180" as="geometry"/>
                </mxCell>
                <mxCell id="58" value="" style="group;verticalAlign=top;" vertex="1" connectable="0" parent="56">
                    <mxGeometry x="40" y="50" width="180" height="110" as="geometry"/>
                </mxCell>
                <mxCell id="59" value="Nota" style="rounded=1;whiteSpace=wrap;html=1;sketch=0;fontColor=#f0f0f0;verticalAlign=top;" vertex="1" parent="58">
                    <mxGeometry x="4.736842105263158" width="170.5263157894737" height="110.00000000000001" as="geometry"/>
                </mxCell>
                <mxCell id="60" value="&lt;ul&gt;&lt;li&gt;ServicoNotaID&lt;/li&gt;&lt;li&gt;NotaID&lt;/li&gt;&lt;li&gt;Conteudo&lt;/li&gt;&lt;/ul&gt;" style="text;strokeColor=none;fillColor=none;html=1;whiteSpace=wrap;verticalAlign=middle;overflow=hidden;sketch=0;fontColor=#f0f0f0;align=left;" vertex="1" parent="58">
                    <mxGeometry y="18.333333333333332" width="180" height="82.5" as="geometry"/>
                </mxCell>
                <mxCell id="61" value="..." style="text;html=1;strokeColor=none;fillColor=none;align=center;verticalAlign=bottom;whiteSpace=wrap;rounded=0;sketch=0;fontColor=#f0f0f0;fontSize=21;" vertex="1" parent="56">
                    <mxGeometry x="110" y="170" width="40" height="20" as="geometry"/>
                </mxCell>
                <mxCell id="62" value="não" style="edgeStyle=orthogonalEdgeStyle;rounded=0;orthogonalLoop=1;jettySize=auto;html=1;fontSize=21;fontColor=#f0f0f0;entryX=1;entryY=0.5;entryDx=0;entryDy=0;exitX=0;exitY=0.5;exitDx=0;exitDy=0;shadow=0;" edge="1" parent="1" source="68" target="41">
                    <mxGeometry relative="1" as="geometry">
                        <mxPoint x="130" y="410" as="targetPoint"/>
                        <mxPoint x="360" y="380" as="sourcePoint"/>
                        <Array as="points">
                            <mxPoint x="310" y="585"/>
                            <mxPoint x="310" y="700"/>
                        </Array>
                    </mxGeometry>
                </mxCell>
                <mxCell id="64" value="sim" style="edgeStyle=orthogonalEdgeStyle;rounded=0;orthogonalLoop=1;jettySize=auto;html=1;exitX=1;exitY=0.5;exitDx=0;exitDy=0;entryX=0;entryY=0.5;entryDx=0;entryDy=0;fontSize=21;fontColor=#f0f0f0;" edge="1" parent="1" source="68" target="60">
                    <mxGeometry relative="1" as="geometry">
                        <Array as="points">
                            <mxPoint x="542" y="585"/>
                            <mxPoint x="542" y="700"/>
                        </Array>
                    </mxGeometry>
                </mxCell>
                <mxCell id="66" style="edgeStyle=orthogonalEdgeStyle;rounded=0;orthogonalLoop=1;jettySize=auto;html=1;exitX=0.5;exitY=0;exitDx=0;exitDy=0;entryX=0.75;entryY=1;entryDx=0;entryDy=0;fontSize=21;fontColor=#f0f0f0;startArrow=classic;startFill=1;" edge="1" parent="1" source="57" target="32">
                    <mxGeometry relative="1" as="geometry"/>
                </mxCell>
                <mxCell id="67" style="edgeStyle=orthogonalEdgeStyle;rounded=0;orthogonalLoop=1;jettySize=auto;html=1;exitX=0.5;exitY=0;exitDx=0;exitDy=0;entryX=0.25;entryY=1;entryDx=0;entryDy=0;startArrow=classic;startFill=1;fontSize=21;fontColor=#f0f0f0;" edge="1" parent="1" source="42" target="32">
                    <mxGeometry relative="1" as="geometry"/>
                </mxCell>
                <mxCell id="69" style="edgeStyle=orthogonalEdgeStyle;rounded=0;sketch=0;orthogonalLoop=1;jettySize=auto;html=1;exitX=0.5;exitY=0;exitDx=0;exitDy=0;entryX=0.5;entryY=1;entryDx=0;entryDy=0;shadow=0;startArrow=classic;startFill=1;fontSize=21;fontColor=#f0f0f0;" edge="1" parent="1" source="68" target="32">
                    <mxGeometry relative="1" as="geometry">
                        <Array as="points">
                            <mxPoint x="435" y="480"/>
                            <mxPoint x="457" y="480"/>
                        </Array>
                    </mxGeometry>
                </mxCell>
                <mxCell id="68" value="tem conta" style="rhombus;whiteSpace=wrap;html=1;sketch=0;fontSize=21;fontColor=#f0f0f0;align=center;" vertex="1" parent="1">
                    <mxGeometry x="350" y="535" width="170" height="100" as="geometry"/>
                </mxCell>
            </root>
        </mxGraphModel>
    </diagram>
</mxfile>